<svg xmlns="http://www.w3.org/2000/svg" width="42.397" height="30" viewBox="0 0 42.397 30">
  <g id="amazon" transform="translate(-103.313 0.085)">
    <path id="Path_2882" data-name="Path 2882" d="M105.077-.085H143.9a1.77,1.77,0,0,1,1.765,1.765V28.15a1.77,1.77,0,0,1-1.765,1.765H105.077a1.769,1.769,0,0,1-1.764-1.765V1.68A1.769,1.769,0,0,1,105.077-.085Z" fill="#ffaf38"/>
    <path id="Path_2894" data-name="Path 2894" d="M105.077-.085H143.9a1.77,1.77,0,0,1,1.765,1.765V28.15a1.77,1.77,0,0,1-1.765,1.765H105.077a1.769,1.769,0,0,1-1.764-1.765V1.68A1.769,1.769,0,0,1,105.077-.085Z" fill="#ffaf38"/>
    <path id="Font_Awesome_5_brands_amazon-pay" d="M0,75.938c.1-.178.22-.208.411-.106.441.237.874.483,1.323.708a25.266,25.266,0,0,0,5.4,1.963,26.145,26.145,0,0,0,2.68.5,25.585,25.585,0,0,0,4.028.22c.738-.017,1.476-.076,2.209-.161a25.6,25.6,0,0,0,6.924-1.815.6.6,0,0,1,.386-.051.343.343,0,0,1,.174.589,2.967,2.967,0,0,1-.407.314,16.238,16.238,0,0,1-4.223,2.031,20.069,20.069,0,0,1-3.184.746,18.273,18.273,0,0,1-2.256.2.9.9,0,0,0-.106.013h-.895a.9.9,0,0,0-.106-.013c-.153-.008-.305-.013-.454-.017a18.076,18.076,0,0,1-2.137-.225,19.013,19.013,0,0,1-3.409-.886A18.8,18.8,0,0,1,.187,76.264,1.47,1.47,0,0,1,0,76.022v-.085ZM6.7,64.9l-.182.025a3.431,3.431,0,0,0-1.611.64c-.1.072-.2.148-.3.229a.182.182,0,0,1-.017-.059c-.017-.114-.034-.233-.055-.348a.285.285,0,0,0-.322-.28H3.723c-.293,0-.348.055-.348.348v8.875c0,.042,0,.085,0,.127a.206.206,0,0,0,.208.212c.3,0,.6,0,.895,0a.21.21,0,0,0,.212-.212c0-.042,0-.085,0-.127v-3.07c.047.038.072.059.093.081A2.978,2.978,0,0,0,7.378,72a2.575,2.575,0,0,0,1.857-1.48,4.337,4.337,0,0,0,.437-1.87,4.859,4.859,0,0,0-.343-2.112,2.5,2.5,0,0,0-1.861-1.565c-.136-.03-.276-.042-.416-.064C6.933,64.9,6.818,64.9,6.7,64.9ZM4.69,66.681a.148.148,0,0,1,.072-.14,2.924,2.924,0,0,1,1.934-.56,1.535,1.535,0,0,1,1.421,1.1,4.033,4.033,0,0,1,.208,1.4,4.2,4.2,0,0,1-.17,1.3,1.639,1.639,0,0,1-1.806,1.208A2.94,2.94,0,0,1,4.762,70.4a.151.151,0,0,1-.072-.14c0-.6,0-1.192,0-1.789s0-1.187,0-1.785ZM13.412,64.9c-.042,0-.085.013-.123.017a6.277,6.277,0,0,0-1.225.174c-.259.068-.509.161-.759.246a.306.306,0,0,0-.225.327c0,.14,0,.28,0,.42,0,.2.089.259.288.208.331-.085.661-.178,1-.242a4.692,4.692,0,0,1,1.577-.059,1.027,1.027,0,0,1,.712.356,1.174,1.174,0,0,1,.225.7c.013.352.008.7.013,1.056a.333.333,0,0,1-.008.059c-.021,0-.038,0-.055,0a7.656,7.656,0,0,0-1.357-.208,3.623,3.623,0,0,0-1.412.165,2.068,2.068,0,0,0-1.247,1.056,2.219,2.219,0,0,0-.165,1.3,1.742,1.742,0,0,0,.907,1.344,2.455,2.455,0,0,0,1.607.229,3.488,3.488,0,0,0,1.709-.78.312.312,0,0,1,.068-.047c.025.161.047.314.076.466a.241.241,0,0,0,.229.22c.229,0,.462,0,.691,0a.205.205,0,0,0,.2-.2,1.111,1.111,0,0,0,0-.119V67.092a3.391,3.391,0,0,0-.038-.547,1.683,1.683,0,0,0-.806-1.289,2.447,2.447,0,0,0-.924-.3c-.153-.021-.305-.034-.458-.055C13.751,64.9,13.582,64.9,13.412,64.9ZM14.9,70.319a.141.141,0,0,1-.064.127,3.229,3.229,0,0,1-1.586.632A1.455,1.455,0,0,1,12.534,71a.851.851,0,0,1-.526-.564,1.4,1.4,0,0,1,0-.823.977.977,0,0,1,.7-.661,2.6,2.6,0,0,1,1.052-.093c.356.03.7.1,1.06.144.068.008.089.042.089.11,0,.2,0,.4,0,.606S14.892,70.12,14.9,70.319Zm11.021,5.487c-.042-.212-.2-.293-.386-.352a3.749,3.749,0,0,0-.89-.165,6.247,6.247,0,0,0-1.662.081,4.378,4.378,0,0,0-1.7.661.583.583,0,0,0-.157.148.217.217,0,0,0-.021.17c.017.064.089.081.153.076a.686.686,0,0,0,.093,0c.331-.034.657-.072.988-.106a8.339,8.339,0,0,1,1.454-.038,3.038,3.038,0,0,1,.611.114.428.428,0,0,1,.322.441,3.119,3.119,0,0,1-.148.988,17.918,17.918,0,0,1-.67,1.912.746.746,0,0,0-.042.127c-.021.123.051.2.174.174a.448.448,0,0,0,.2-.106,6.187,6.187,0,0,0,.539-.568A5.724,5.724,0,0,0,25.828,77c.034-.153.059-.31.089-.462Zm-5.6-5.224q-.82-2.271-1.641-4.546c-.085-.242-.178-.479-.267-.717a.281.281,0,0,0-.271-.2c-.322,0-.645-.008-.971,0-.106,0-.157.085-.136.191a1.828,1.828,0,0,0,.081.259q1.247,3.085,2.506,6.17a.575.575,0,0,1,.008.5c-.14.31-.25.636-.394.946a.975.975,0,0,1-.645.564,1.786,1.786,0,0,1-.653.047c-.106-.008-.212-.034-.318-.042-.144-.008-.216.055-.22.2s0,.28,0,.42c0,.233.085.339.314.377a4.586,4.586,0,0,0,.717.085,1.777,1.777,0,0,0,1.675-.907,5.581,5.581,0,0,0,.39-.78q1.507-3.8,2.994-7.616a1.129,1.129,0,0,0,.068-.233c.017-.119-.038-.187-.157-.187-.28,0-.564,0-.844,0a.32.32,0,0,0-.327.22c-.021.059-.047.114-.068.174q-.738,2.118-1.476,4.24c-.106.305-.216.615-.327.941-.017-.047-.025-.072-.038-.1Z" transform="translate(111.553 -58.082)"/>
    <path id="Path_2885" data-name="Path 2885" d="M105.739,29.915a2.457,2.457,0,0,1-2.426-2.47V2.386a2.429,2.429,0,0,1,2.426-2.471h37.544a2.458,2.458,0,0,1,2.427,2.471" fill="#fff" opacity="0.12"/>
  </g>
</svg>
