<svg xmlns="http://www.w3.org/2000/svg" width="42.354" height="30.001" viewBox="0 0 42.354 30.001">
  <g id="americanexpress" transform="translate(-154.887)">
    <path id="Path_2886" data-name="Path 2886" d="M156.652,0h38.823a1.771,1.771,0,0,1,1.766,1.765V28.236A1.771,1.771,0,0,1,195.475,30H156.652a1.77,1.77,0,0,1-1.765-1.765V1.765A1.771,1.771,0,0,1,156.652,0Z" fill="#2aa0d0"/>
    <path id="Path_2887" data-name="Path 2887" d="M184.005,11.471h-5.293a.443.443,0,0,1-.882,0h-2.559a.383.383,0,0,0-.4.265l-1.411,3.529L171.7,11.692a.506.506,0,0,0-.4-.265h-2.295a.417.417,0,0,0-.441.441v4.146l-1.94-4.323a.425.425,0,0,0-.4-.265H163.89a.421.421,0,0,0-.4.265l-3.045,6.617a.519.519,0,0,0,.045.441.452.452,0,0,0,.353.221h1.9a.385.385,0,0,0,.4-.265l.662-1.5h2.426l.618,1.5a.425.425,0,0,0,.4.265h3.529a.417.417,0,0,0,.441-.441V16.014l1.1,2.691a.426.426,0,0,0,.4.265h1.367a.385.385,0,0,0,.4-.265l1.147-2.735v2.559a.416.416,0,0,0,.44.441h1.766a.443.443,0,0,1,.882,0H184a.416.416,0,0,0,.441-.441V17.206a.416.416,0,0,0-.441-.441h-3.088v-.441h3a.416.416,0,0,0,.441-.44V14.56a.416.416,0,0,0-.441-.441h-3v-.44H184a.416.416,0,0,0,.441-.441V11.915A.472.472,0,0,0,184.005,11.471ZM164.638,15l.4-.883.4.883Z" fill="#2aa0d0"/>
    <path id="Path_2888" data-name="Path 2888" d="M191.373,17.162l-1.765-1.9,1.765-1.9a.4.4,0,0,0,.132-.309V11.913a.451.451,0,0,0-.442-.442h-1.19a.5.5,0,0,0-.353.132l-1.545,1.854-1.588-1.809a.332.332,0,0,0-.309-.177h-1.191a.417.417,0,0,0-.441.441v6.617a.417.417,0,0,0,.441.441h1.059a.4.4,0,0,0,.309-.133l1.678-1.765,1.676,1.765a.474.474,0,0,0,.309.133h1.146a.4.4,0,0,0,.31-.133.4.4,0,0,0,.132-.309V17.469A.4.4,0,0,0,191.373,17.162Zm-6.044-.839V14.161l1.014,1.06Z" fill="#2aa0d0"/>
    <path id="Path_2889" data-name="Path 2889" d="M163.976,15.441h2.118l-1.06-2.382Z" fill="#fff"/>
    <path id="Path_2890" data-name="Path 2890" d="M184.888,17.471l2.074-2.206-2.074-2.206Z" fill="#fff"/>
    <path id="Path_2891" data-name="Path 2891" d="M191.726,16.854l-1.5-1.589,1.5-1.588a1.052,1.052,0,0,0,.221-.618V11.913a.9.9,0,0,0-.883-.883h-1.19a.8.8,0,0,0-.662.309l-1.235,1.412-1.234-1.412a.945.945,0,0,0-.662-.309H184.89a.8.8,0,0,1-.882,0h-5.293a.734.734,0,0,0-.441.133.744.744,0,0,0-.441-.133h-2.559a.906.906,0,0,0-.839.573l-1.059,2.647-1.323-2.691a.834.834,0,0,0-.795-.485h-2.25a.886.886,0,0,0-.882.883V14.03l-1.1-2.427a.872.872,0,0,0-.795-.529H163.89a.871.871,0,0,0-.794.529l-3.044,6.618a.94.94,0,0,0,.043.838.868.868,0,0,0,.751.4h1.9a.87.87,0,0,0,.793-.529l.529-1.235h1.854l.485,1.235a.862.862,0,0,0,.839.573h3.529a.885.885,0,0,0,.882-.882v-.31l.265.662a.872.872,0,0,0,.795.529h1.367a.989.989,0,0,0,.838-.529l.265-.662v.221a.886.886,0,0,0,.882.883h1.766a.8.8,0,0,1,.882,0h5.293a.734.734,0,0,0,.441-.133.742.742,0,0,0,.441.133h1.059a.976.976,0,0,0,.662-.265l1.367-1.456,1.367,1.456a.9.9,0,0,0,.662.265h1.059a.9.9,0,0,0,.883-.883V17.47A1.065,1.065,0,0,0,191.726,16.854Zm-13.9,1.675h-1.766V13.72l-1.984,4.809h-1.367l-1.941-4.765v4.765h-3.529l-.707-1.765h-3l-.75,1.765h-1.9l3.044-6.617h2.339l2.779,6.176V11.912h2.25l2.205,4.455,1.766-4.455h2.559v6.617Zm6.176-5.294h-3.529v1.323h3.441v1.324h-3.441V17.2h3.529v1.323h-5.293V11.911h5.293Zm6,5.294-2.029-2.117-2.029,2.117h-1.059V11.912h1.191l1.9,2.2,1.9-2.2h1.19v1.146l-2.072,2.206,2.072,2.206v1.059Z" fill="#fff"/>
    <path id="Path_2892" data-name="Path 2892" d="M156.652,30h.794L197.241,2.559V1.765A1.771,1.771,0,0,0,195.475,0H156.652a1.77,1.77,0,0,0-1.765,1.765V28.236A1.771,1.771,0,0,0,156.652,30Z" fill="#fff" opacity="0.05"/>
  </g>
</svg>
