<svg id="cod" xmlns="http://www.w3.org/2000/svg" width="42" height="30" viewBox="0 0 42 30">
  <rect id="Rectangle_72" data-name="Rectangle 72" width="42" height="30" rx="3" fill="#fff"/>
  <g id="Group_46" data-name="Group 46" transform="translate(8.276 2.262)">
    <g id="Group_40" data-name="Group 40" transform="translate(1.808 12.558)">
      <g id="Group_38" data-name="Group 38" transform="translate(13.556)">
        <path id="Path_58" data-name="Path 58" d="M401.7,412.56c.875,3.631-1.143,7.854-2.575,10.251a10.657,10.657,0,0,0,7.753-10.251Z" transform="translate(-399.124 -412.56)" fill="#0170c2"/>
      </g>
      <g id="Group_39" data-name="Group 39" transform="translate(0 0)">
        <path id="Path_59" data-name="Path 59" d="M393.853,421.039a7.8,7.8,0,0,1,1.3-5.357,6.246,6.246,0,0,0,1.036-3.121h-6.543A10.632,10.632,0,0,0,393.853,421.039Z" transform="translate(-389.648 -412.561)" fill="#0170c2"/>
      </g>
    </g>
    <g id="Group_41" data-name="Group 41" transform="translate(1.808 1.807)">
      <path id="Path_60" data-name="Path 60" d="M409.435,405.112H391.17a1.522,1.522,0,0,1-1.522,1.522v6.088a1.524,1.524,0,0,1,1.522,1.522h5.078c-.013-1.26-.153-2.462-.215-3.326a1.885,1.885,0,0,1,1.279-1.874,3.166,3.166,0,0,1,2.99-2.791,3.448,3.448,0,0,1,0,6.849,2.775,2.775,0,0,1-.438-.039q-.009.629.011,1.18h9.559a1.522,1.522,0,0,1,1.522-1.522v-6.089A1.521,1.521,0,0,1,409.435,405.112Zm-15.982,5.9a1.332,1.332,0,1,1,1.332-1.332,1.332,1.332,0,0,1-1.332,1.332Zm13.7,0a1.332,1.332,0,1,1,1.332-1.332,1.332,1.332,0,0,1-1.332,1.332Z" transform="translate(-389.648 -405.112)" fill="#86ccff"/>
    </g>
    <g id="Group_45" data-name="Group 45" transform="translate(0 0)">
      <g id="Group_42" data-name="Group 42" transform="translate(17.695 4.778)">
        <path id="Path_61" data-name="Path 61" d="M402.372,410.409a1.617,1.617,0,1,0-1.618-1.618A1.617,1.617,0,0,0,402.372,410.409Zm0-2.664a1.046,1.046,0,1,1-1.046,1.046,1.046,1.046,0,0,1,1.046-1.046Z" transform="translate(-400.754 -407.174)" fill="#1f1d21"/>
      </g>
      <g id="Group_43" data-name="Group 43" transform="translate(3.995 4.778)">
        <path id="Path_62" data-name="Path 62" d="M392.795,410.409a1.617,1.617,0,1,0-1.618-1.618A1.617,1.617,0,0,0,392.795,410.409Zm0-2.664a1.046,1.046,0,1,1-1.046,1.046,1.046,1.046,0,0,1,1.046-1.046Z" transform="translate(-391.177 -407.174)" fill="#1f1d21"/>
      </g>
      <g id="Group_44" data-name="Group 44">
        <path id="Path_63" data-name="Path 63" d="M413.024,403.849H388.671a.286.286,0,0,0-.286.286v12.224a.288.288,0,0,0,.286.287h7.743a5.655,5.655,0,0,1-.944,2.675c-2.8,3.8-.565,9.149-.469,9.374a.286.286,0,0,0,.263.174.278.278,0,0,0,.111-.023.287.287,0,0,0,.15-.376c-.022-.053-2.2-5.272.4-8.807a6.919,6.919,0,0,0,1.131-3.805,25.545,25.545,0,0,0-.133-3.6c-.024-.283-.047-.546-.065-.784a1.54,1.54,0,0,1,.609-1.326,1.721,1.721,0,0,1,1.591-.3,1.771,1.771,0,0,1,1.15,1.841,26.311,26.311,0,0,0-.018,4.175,9.361,9.361,0,0,0,.875,3.518.286.286,0,1,0,.5-.271,7.588,7.588,0,0,1-.713-2.467h5.229c1.074,5.213-3.791,11.7-3.841,11.763a.288.288,0,0,0,.054.4.283.283,0,0,0,.4-.054c.21-.275,5.008-6.669,3.97-12.11h6.352a.286.286,0,0,0,.285-.287V404.136A.285.285,0,0,0,413.024,403.849ZM399.237,409.3a2.252,2.252,0,0,0-.994-.083,2.817,2.817,0,0,1,2.6-2.125,3.179,3.179,0,0,1,0,6.3c-.049,0-.1,0-.143-.007.013-.531.036-1.08.079-1.659a2.35,2.35,0,0,0-1.546-2.429Zm13.5,6.768H400.792c-.008-.086-.02-.167-.027-.257-.05-.572-.073-1.192-.072-1.852.052,0,.1.009.154.009a3.748,3.748,0,0,0,0-7.449,3.431,3.431,0,0,0-3.237,2.876,2.321,2.321,0,0,0-.491.3,2.136,2.136,0,0,0-.825,1.818c.017.24.04.505.066.793a24.94,24.94,0,0,1,.13,3.52c0,.085-.013.164-.019.247h-7.516V404.422h23.784Z" transform="translate(-388.385 -403.849)" fill="#1f1d21"/>
      </g>
    </g>
  </g>
</svg>
