<svg xmlns="http://www.w3.org/2000/svg" width="42" height="30" viewBox="0 0 42 30">
  <g id="flutterwave" transform="translate(0.352)">
    <rect id="Rectangle_72" data-name="Rectangle 72" width="42" height="30" rx="3" transform="translate(-0.352)" fill="#fff"/>
    <g id="Page-1" transform="translate(9.688 2.275)">
      <g id="Group-32" transform="translate(0 0)">
        <g id="Group-31">
          <path id="Shape" d="M89.64,129.89c3.207-2.649,9.8-12.119-.5-10.45-4.489.687-11.087,5.053-12.415,10.058a40.19,40.19,0,0,0-2.29-3.876c-1.237-1.718-2.657-.393-1.283,1.374,3.894,5.053,6.6,11.137,6.6,17.269a25.994,25.994,0,0,0-1.374-10.4,5.949,5.949,0,0,0,1.832.294,18.778,18.778,0,0,0,8.933,7.752c3.3,1.325,7.7.54,5.91-4.758A17,17,0,0,0,89.64,129.89Zm.458-9.223c5.727-.637-.413,6.476-2.428,7.8-1.879-1.227-4.215-2.306-6.505-2.011,1.649-2.111,5.635-5.4,8.933-5.79Zm-8.98,7.359a7.472,7.472,0,0,1,4.535,1.619,10.377,10.377,0,0,1-4.032,1.128C79.515,130.773,79.1,128.222,81.118,128.026Zm7.927,11.088a15.606,15.606,0,0,1-7.056-5.151,13.3,13.3,0,0,0,4.352-1.717,9.353,9.353,0,0,0,1.466-.933,13.173,13.173,0,0,1,3.894,5.642C92.343,139.359,90.6,139.555,89.044,139.114Z" transform="translate(-72.584 -119.244)" fill="#f5a623"/>
        </g>
      </g>
    </g>
  </g>
</svg>
