<svg xmlns="http://www.w3.org/2000/svg" xmlns:xlink="http://www.w3.org/1999/xlink" width="42" height="30" viewBox="0 0 42 30">
  <defs>
    <clipPath id="clip-path">
      <path id="Path_35" data-name="Path 35" d="M24,0h3.315V25.02H24Zm0,0" transform="translate(-24)"/>
    </clipPath>
  </defs>
  <g id="midtrans" transform="translate(-0.418)">
    <rect id="Rectangle_72" data-name="Rectangle 72" width="42" height="30" rx="3" transform="translate(0.418)" fill="#fff"/>
    <g id="surface1" transform="translate(9.627 2.275)">
      <path id="Path_32" data-name="Path 32" d="M1.657,27.026A1.655,1.655,0,0,1,0,25.373V13.346a1.657,1.657,0,1,1,3.315,0V25.373a1.655,1.655,0,0,1-1.657,1.653" transform="translate(0 -6.842)" fill="#89c8e9"/>
      <path id="Path_33" data-name="Path 33" d="M49.657,27.041A1.654,1.654,0,0,1,48,25.388V13.371a1.657,1.657,0,0,1,3.315,0V25.388a1.654,1.654,0,0,1-1.657,1.653" transform="translate(-28.148 -6.857)" fill="#0eaedd"/>
      <g id="Group_30" data-name="Group 30" transform="translate(9.926)" clip-path="url(#clip-path)">
        <path id="Path_34" data-name="Path 34" d="M25.657,25.049A1.656,1.656,0,0,1,24,23.394V1.709a1.657,1.657,0,0,1,3.315,0V23.394a1.656,1.656,0,0,1-1.657,1.655" transform="translate(-24 -0.028)" fill="#2e80c3"/>
      </g>
    </g>
  </g>
</svg>
