<svg xmlns="http://www.w3.org/2000/svg" width="42" height="30" viewBox="0 0 42 30">
  <g id="paypal" transform="translate(-0.066)">
    <rect id="Rectangle_72" data-name="Rectangle 72" width="42" height="30" rx="3" transform="translate(0.066)" fill="#fff"/>
    <g id="PayPal_2_" data-name="PayPal (2)" transform="translate(10.392 2.3)">
      <path id="Path_47" data-name="Path 47" d="M6.272,24.522l.417-2.752H1.1L4.27,1.25Q4.395,1,4.52,1h7.841c2.586,0,4.421.584,5.339,1.668a3.258,3.258,0,0,1,.834,1.585,4.727,4.727,0,0,1,0,2.169v.667l.417.25a1.884,1.884,0,0,1,.918.666,3.5,3.5,0,0,1,.751,1.585,7.543,7.543,0,0,1-.083,2.336,6.836,6.836,0,0,1-1,2.669,5.813,5.813,0,0,1-1.5,1.668,5.3,5.3,0,0,1-2.085.918,11.464,11.464,0,0,1-2.586.334h-.584a1.993,1.993,0,0,0-1.168.417,1.426,1.426,0,0,0-.584,1.084l-.083.25-.751,4.921v.167c0,.083,0,.083-.083.083h-.083C10.026,24.522,6.272,24.522,6.272,24.522Z" transform="translate(-0.169 -0.168)" fill="#253b80"/>
      <path id="Path_48" data-name="Path 48" d="M20.18,7.7v.416c-1,5.327-4.578,7.074-9.072,7.074H8.778a1.083,1.083,0,0,0-1.082.916L6.53,23.514,6.2,25.6c-.083.333.166.583.5.666H10.86a.989.989,0,0,0,1-.832v-.166l.749-4.828.083-.25a.989.989,0,0,1,1-.832h.583c3.912,0,6.992-1.582,7.907-6.243a5.108,5.108,0,0,0-.832-4.661A4.085,4.085,0,0,0,20.18,7.7Z" transform="translate(-0.978 -1.241)" fill="#179bd7"/>
      <path id="Path_49" data-name="Path 49" d="M19.487,7.115a2.216,2.216,0,0,0-1-.25,16.163,16.163,0,0,0-2-.166H10.331a.989.989,0,0,0-1,.832L8,15.772v.25a1.072,1.072,0,0,1,1.082-.916h2.33c4.495,0,7.99-1.831,9.072-7.074v-.5a3.478,3.478,0,0,0-.832-.332.258.258,0,0,0-.166-.084Z" transform="translate(-1.283 -1.105)" fill="#222d65"/>
      <path id="Path_50" data-name="Path 50" d="M8.007,6.423a.991.991,0,0,1,1-.834h6.174a13.841,13.841,0,0,1,2,.167,6.949,6.949,0,0,1,1.251.334,8.654,8.654,0,0,1,.834.334,4.937,4.937,0,0,0-1.085-4.5C17.016.584,14.931,0,12.179,0H4.337A1.155,1.155,0,0,0,3.252.918L0,21.606a.614.614,0,0,0,.584.751H5.5l1.168-7.675Z" transform="translate(0.017)" fill="#253b80"/>
    </g>
  </g>
</svg>
