<svg xmlns="http://www.w3.org/2000/svg" width="42" height="30" viewBox="0 0 42 30">
  <g id="paystack" transform="translate(0.164)">
    <rect id="Rectangle_72" data-name="Rectangle 72" width="42" height="30" rx="3" transform="translate(-0.164)" fill="#fff"/>
    <g id="Group_50" data-name="Group 50" transform="translate(7.916 2.275)">
      <path id="Path_17771" data-name="Path 17771" d="M22.8,15.5H1.335A1.347,1.347,0,0,0,0,16.835v2.393a1.335,1.335,0,0,0,1.335,1.335H22.8a1.362,1.362,0,0,0,1.352-1.335V16.852A1.354,1.354,0,0,0,22.8,15.5Zm0,13.317H1.335A1.335,1.335,0,0,0,0,30.151v2.393a1.335,1.335,0,0,0,1.335,1.334H22.8a1.351,1.351,0,0,0,1.352-1.335V30.151A1.339,1.339,0,0,0,22.8,28.816ZM13.42,35.457H1.335A1.335,1.335,0,0,0,0,36.793v2.393a1.335,1.335,0,0,0,1.335,1.335H13.4a1.335,1.335,0,0,0,1.335-1.335V36.793a1.31,1.31,0,0,0-1.318-1.335Zm10.733-13.3H1.335A1.335,1.335,0,0,0,0,23.493v2.393a1.335,1.335,0,0,0,1.335,1.335h22.8a1.335,1.335,0,0,0,1.335-1.335V23.493a1.321,1.321,0,0,0-1.318-1.335Z" transform="translate(0 -15.5)" fill="#00c3f7"/>
    </g>
  </g>
</svg>
