<svg xmlns="http://www.w3.org/2000/svg" width="42" height="30" viewBox="0 0 42 30">
  <g id="paytm" transform="translate(-0.484)">
    <rect id="Rectangle_72" data-name="Rectangle 72" width="42" height="30" rx="3" transform="translate(0.484)" fill="#fff"/>
    <g id="layer1" transform="translate(2.757 9.13)">
      <g id="g52" transform="translate(27.297 1.792)">
        <path id="path54" d="M5.522.92A2.5,2.5,0,0,0,3.168-.749H3.146a2.485,2.485,0,0,0-1.8.767A2.488,2.488,0,0,0-.452-.75H-.475a2.48,2.48,0,0,0-1.626.6V-.338a.367.367,0,0,0-.366-.34H-4.137A.369.369,0,0,0-4.4-.57a.369.369,0,0,0-.108.261V8.756a.369.369,0,0,0,.108.262.369.369,0,0,0,.261.108h1.669A.368.368,0,0,0-2.1,8.807V2.3a.585.585,0,0,1,0-.064.608.608,0,0,1,.575-.559h.308a.649.649,0,0,1,.352.137A.614.614,0,0,1-.64,2.3l.006,6.475a.37.37,0,0,0,.369.371H1.4a.369.369,0,0,0,.367-.352v-6.5a.613.613,0,0,1,.272-.521.679.679,0,0,1,.307-.1h.308a.61.61,0,0,1,.578.624l.007,6.467a.369.369,0,0,0,.369.37H5.28a.369.369,0,0,0,.369-.37V1.8A2.323,2.323,0,0,0,5.523.92" transform="translate(4.506 0.75)" fill="#54c1f0"/>
      </g>
      <g id="g56" transform="translate(21.334 0)">
        <path id="path58" d="M2.583,1.04H1.628V-.507h0v0a.332.332,0,0,0-.121-.261.332.332,0,0,0-.279-.069C.17-.551.382.915-1.55,1.04h-.188a.386.386,0,0,0-.081.009h0a.369.369,0,0,0-.289.36V3.078a.37.37,0,0,0,.37.369H-.731v7.078a.365.365,0,0,0,.365.364h1.65a.364.364,0,0,0,.364-.365V3.446h.935a.37.37,0,0,0,.37-.368V1.409a.37.37,0,0,0-.369-.369" transform="translate(2.108 0.848)" fill="#54c1f0"/>
      </g>
      <g id="g60" transform="translate(14.086 1.888)">
        <path id="path62" d="M3.26,0H1.59a.369.369,0,0,0-.368.369V3.82a.391.391,0,0,1-.391.385h-.7a.391.391,0,0,1-.392-.391L-.266.369A.37.37,0,0,0-.635,0H-2.3a.369.369,0,0,0-.369.369V4.152A2.369,2.369,0,0,0-1.98,5.921a2.369,2.369,0,0,0,1.77.692s1.079,0,1.113.006a.388.388,0,0,1,.006.772L.88,7.4-1.563,7.4a.369.369,0,0,0-.369.37V9.443a.369.369,0,0,0,.108.261.369.369,0,0,0,.261.108H1.166A2.368,2.368,0,0,0,3.629,7.351V.369A.369.369,0,0,0,3.26,0" transform="translate(2.675)" fill="#233266"/>
      </g>
      <g id="g64" transform="translate(0 1.888)">
        <path id="path66" d="M2.127,1.685v1.03a.392.392,0,0,1-.391.392H.677V1.043H1.736a.391.391,0,0,1,.391.391Zm.146-3.059H-1.375a.362.362,0,0,0-.362.362v9.07a.36.36,0,0,0,.338.37H.3a.369.369,0,0,0,.369-.37L.677,5.521h1.6A2.167,2.167,0,0,0,4.541,3.253V.9A2.169,2.169,0,0,0,2.273-1.374" transform="translate(1.737 1.374)" fill="#233266"/>
      </g>
      <g id="g68" transform="translate(6.865 1.897)">
        <path id="path70" d="M2.161,3.836V4.1a.375.375,0,0,1-.393.367H1.073A.382.382,0,0,1,.679,4.1V2.668A.38.38,0,0,1,1.072,2.3h.695a.381.381,0,0,1,.393.367ZM1.9-3.132H-.421a.359.359,0,0,0-.37.346V-1.22A.381.381,0,0,0-.4-.853H1.807A.384.384,0,0,1,2.139-.5v.215a.369.369,0,0,1-.323.342H.724a2.316,2.316,0,0,0-2.487,2.32V4.318A2.187,2.187,0,0,0,.57,6.624H3.6a.953.953,0,0,0,.984-.918V-.626c0-1.536-.792-2.505-2.684-2.505" transform="translate(1.763 3.132)" fill="#233266"/>
      </g>
    </g>
  </g>
</svg>
