<svg xmlns="http://www.w3.org/2000/svg" width="42" height="30" viewBox="0 0 42 30">
  <g id="payu" transform="translate(-0.256)">
    <rect id="Rectangle_72" data-name="Rectangle 72" width="42" height="30" rx="3" transform="translate(0.256)" fill="#fff"/>
    <g id="logo-white" transform="translate(1.79 5.215)">
      <path id="Path_51" data-name="Path 51" d="M73.419,4.1H71.7a.342.342,0,0,1-.34-.343V2a.341.341,0,0,1,.341-.342h1.722A.342.342,0,0,1,73.76,2V3.76a.341.341,0,0,1-.34.342m-2.3-2.443h-1.17a.232.232,0,0,1-.231-.233V.233A.232.232,0,0,1,69.955,0h1.17a.232.232,0,0,1,.231.233V1.426a.232.232,0,0,1-.231.232" transform="translate(-34.829)" fill="#3aae97" fill-rule="evenodd"/>
      <g id="Group_32" data-name="Group 32" transform="translate(0 4.883)">
        <path id="Path_52" data-name="Path 52" d="M34.891,1.327V7.274a4.442,4.442,0,0,1-.628,2.419c-.8,1.265-2.347,1.939-4.548,1.939H29.7c-2.2,0-3.749-.674-4.548-1.939a4.442,4.442,0,0,1-.628-2.419V1.327c0-.961.389-1.135,1.436-1.135h.33c1.047,0,1.436.174,1.436,1.135V7.274a1.689,1.689,0,0,0,.225.927c.285.443.851.645,1.755.645s1.469-.2,1.755-.645a1.691,1.691,0,0,0,.225-.927V1.327c0-.961.389-1.135,1.436-1.135h.33c1.047,0,1.436.174,1.436,1.135ZM23.447,3.618,21.5,11.462c-.57,2.3-1.546,3.286-3.365,3.406q-.067.006-.133.006c-.392,0-.516-.218-.589-.569l-.034-.152a.591.591,0,0,1,.038-.465c.089-.121.25-.156.5-.178,1.219-.126,1.632-.694,2.038-1.98a2.129,2.129,0,0,1-.674.1c-1.339,0-1.7-.94-2-2.075L15.674,3.623a.645.645,0,0,1,.015-.543.623.623,0,0,1,.512-.156h.135a.711.711,0,0,1,.832.643l1.591,5.88c.205.734.412.858.928.858.421,0,.667-.132.843-.855l1.4-5.88a.691.691,0,0,1,.815-.645H22.9a.632.632,0,0,1,.512.154A.652.652,0,0,1,23.447,3.618ZM13.623,7.6H11.75c-1.505,0-2.091.385-2.091,1.374,0,.9.585,1.341,1.788,1.341,1.821,0,2.177-.561,2.177-1.528ZM11.446,2.673c2.464,0,3.661.911,3.661,2.785V8.834c0,1.938-1.124,2.8-3.645,2.8-2.121,0-3.289-.946-3.289-2.665,0-1.772,1.131-2.6,3.559-2.6h1.889V5.458c0-1.025-.611-1.443-2.11-1.443A9,9,0,0,0,9.677,4.2a1.081,1.081,0,0,1-.259.038.364.364,0,0,1-.329-.161A.744.744,0,0,1,9,3.668V3.533c0-.479.175-.594.593-.686a8.909,8.909,0,0,1,1.851-.173ZM6.685,3.81c0,1.411-.358,2.176-2.245,2.176H1.535V2.345c0-.5.186-.693.688-.693H4.44c1.421,0,2.245.353,2.245,2.159ZM4.44.19h-2.5C.6.19,0,.793,0,2.14V10.8c0,.521.166.688.683.688H.852c.517,0,.683-.167.683-.688V7.431h2.9c2.579,0,3.78-1.15,3.78-3.62S7.019.19,4.44.19Z" transform="translate(0 -0.19)" fill="#3aae97" fill-rule="evenodd" opacity="0.963"/>
      </g>
      <path id="Path_53" data-name="Path 53" d="M69.3,11.481H66.978a.459.459,0,0,1-.457-.461V8.655a.46.46,0,0,1,.458-.461H69.3a.459.459,0,0,1,.457.461V11.02a.459.459,0,0,1-.458.46" transform="translate(-33.229 -4.095)" fill="#3aae97" fill-rule="evenodd" opacity="0.921"/>
    </g>
  </g>
</svg>
