<svg xmlns="http://www.w3.org/2000/svg" viewBox="0 0 1029 1029"><defs><style>.cls-1{fill:#2c5da9;}.cls-2{fill:#fff;}</style></defs><g id="Layer_2" data-name="Layer 2"><g id="Layer_1-2" data-name="Layer 1"><rect class="cls-1" width="1029" height="1029"/><path class="cls-2" d="M618.23,539.47c1.77-2,2.94-3.34,4.2-4.64,74.77-77.12,149-154.8,224.65-231.05,24.32-24.51,31.15-51.31,18.14-81.55-13.67-31.79-39.19-50.24-75-50.29q-262.75-.34-525.49.31c-11.93,0-26,3.13-35.36,9.89C202.88,201.22,208.13,231.3,209,258.4c1.48,46.13,21.12,64,66.84,64h285l-81.07,85.37L404,336V626.07l287.53-16.86Zm-240.83,116V518.31a38.91,38.91,0,0,0-3.44,2.83C308.85,588.81,244.05,656.79,178.49,724c-23,23.57-33.57,49.36-19.69,80.73,13.25,29.92,36.58,47.26,70.11,47.3q287.73.33,575.45.07c28.77,0,53-8.26,58.29-40.68,3-18.25,2.38-37.13,2.6-55.74.4-34.1-19.8-54.15-53.81-54.15L492,701.62H457.47l55.71-53.09Z"/></g></g></svg>