<svg xmlns="http://www.w3.org/2000/svg" width="42" height="30" viewBox="0 0 42 30">
  <g id="stripe" transform="translate(-1.674)">
    <rect id="Rectangle_72" data-name="Rectangle 72" width="42" height="30" rx="3" transform="translate(1.674)" fill="#fff"/>
    <g id="g32" transform="translate(3.649 7.084)">
      <path id="path18" d="M347.553,72.441c0-2.706-1.311-4.841-3.815-4.841s-4.038,2.135-4.038,4.82c0,3.181,1.8,4.788,4.376,4.788A5.893,5.893,0,0,0,347,76.521V74.407a5.612,5.612,0,0,1-2.59.581c-1.025,0-1.934-.359-2.05-1.606h5.168C347.532,73.244,347.553,72.694,347.553,72.441Zm-5.221-1c0-1.194.729-1.691,1.4-1.691.645,0,1.332.5,1.332,1.691Z" transform="translate(-309.503 -64.26)" fill="#32325d" fill-rule="evenodd"/>
      <path id="path20" d="M262.734,67.6a2.986,2.986,0,0,0-2.072.824l-.137-.655H258.2V80.089l2.642-.56.011-2.991a2.977,2.977,0,0,0,1.871.666c1.892,0,3.615-1.522,3.615-4.873-.011-3.065-1.755-4.736-3.6-4.736Zm-.634,7.283a1.58,1.58,0,0,1-1.247-.5l-.011-3.921a1.573,1.573,0,0,1,1.258-.517c.962,0,1.628,1.078,1.628,2.463C263.728,73.821,263.073,74.879,262.1,74.879Z" transform="translate(-236.617 -64.256)" fill="#32325d" fill-rule="evenodd"/>
      <path id="polygon22" d="M226.453,36l-2.653.56v2.156l2.653-.571Z" transform="translate(-205.853 -36)" fill="#32325d" fill-rule="evenodd"/>
      <path id="rect24" d="M223.8,69.3h2.653v9.248H223.8Z" transform="translate(-205.853 -65.78)" fill="#32325d" fill-rule="evenodd"/>
      <path id="path26" d="M176.152,69.158l-.169-.782H173.7v9.248h2.642V71.355a1.864,1.864,0,0,1,2.008-.55v-2.43a1.794,1.794,0,0,0-2.2.782Z" transform="translate(-161.048 -64.856)" fill="#32325d" fill-rule="evenodd"/>
      <path id="path28" d="M124.987,47.6l-2.579.55-.011,8.466a2.656,2.656,0,0,0,2.738,2.716,4.091,4.091,0,0,0,1.85-.349V56.838c-.338.137-2.008.624-2.008-.941V52.145h2.008V49.894h-2.008Z" transform="translate(-115.168 -46.374)" fill="#32325d" fill-rule="evenodd"/>
      <path id="path30" d="M56.674,70.463c0-.412.338-.571.9-.571a5.9,5.9,0,0,1,2.621.677V68.085a6.97,6.97,0,0,0-2.621-.486C55.427,67.6,54,68.719,54,70.59c0,2.917,4.016,2.452,4.016,3.71,0,.486-.423.645-1.015.645a6.579,6.579,0,0,1-2.885-.846v2.515a7.327,7.327,0,0,0,2.885.6c2.2,0,3.71-1.089,3.71-2.981-.011-3.15-4.038-2.59-4.038-3.773Z" transform="translate(-54 -64.259)" fill="#32325d" fill-rule="evenodd"/>
    </g>
  </g>
</svg>
