<svg xmlns="http://www.w3.org/2000/svg" width="42.354" height="30.001" viewBox="0 0 42.354 30.001">
  <g id="visa" transform="translate(-0.042 0.063)">
    <rect id="Rectangle_269" data-name="Rectangle 269" width="42.353" height="14.117" transform="translate(0.042 7.879)" fill="#f9f9f9"/>
    <path id="Path_2869" data-name="Path 2869" d="M1.807-.062H40.631A1.771,1.771,0,0,1,42.4,1.7V7.88H.042V1.7A1.769,1.769,0,0,1,1.807-.062Z" fill="#09599e"/>
    <path id="Path_2870" data-name="Path 2870" d="M.042,22H42.4v6.177a1.769,1.769,0,0,1-1.765,1.765H1.807A1.769,1.769,0,0,1,.042,28.173V22Z" fill="#e59703"/>
    <path id="Path_2871" data-name="Path 2871" d="M1.807,29.9A1.771,1.771,0,0,1,.042,28.129V1.7A1.77,1.77,0,0,1,1.807-.063H40.631A1.771,1.771,0,0,1,42.4,1.7" fill="#fff" opacity="0.05"/>
    <g id="Group_1465" data-name="Group 1465">
      <path id="Path_2872" data-name="Path 2872" d="M16.41,18.645l1.279-7.457h2.029l-1.279,7.457Z" fill="#00589f"/>
      <path id="Path_2873" data-name="Path 2873" d="M25.807,11.408A5.609,5.609,0,0,0,24,11.1c-2.03,0-3.441,1.015-3.441,2.471,0,1.059,1.015,1.676,1.765,2.03.794.353,1.059.617,1.059.926,0,.484-.618.75-1.235.75a4.451,4.451,0,0,1-1.9-.4l-.265-.177-.265,1.677a6.047,6.047,0,0,0,2.25.4c2.118,0,3.53-1.016,3.53-2.56,0-.838-.53-1.5-1.721-2.029-.706-.353-1.147-.574-1.147-.926,0-.309.353-.662,1.147-.662a4.142,4.142,0,0,1,1.5.265l.176.088.353-1.544" fill="#00589f"/>
      <path id="Path_2874" data-name="Path 2874" d="M31.013,11.231H29.425a1.01,1.01,0,0,0-1.059.618l-3,6.838h2.118s.353-.928.441-1.1h2.6c.044.266.265,1.1.265,1.1h1.9l-1.677-7.456M28.5,16c.176-.441.794-2.073.794-2.073s.176-.441.265-.706l.132.662s.4,1.766.485,2.161H28.5Z" fill="#00589f"/>
      <path id="Path_2875" data-name="Path 2875" d="M14.689,11.231,12.7,16.305l-.22-1.015A5.869,5.869,0,0,0,9.66,12.158l1.853,6.484h2.162L16.9,11.186H14.69" fill="#00589f"/>
      <path id="Path_2876" data-name="Path 2876" d="M10.851,11.188H7.586l-.044.176a6.771,6.771,0,0,1,4.941,3.882l-.706-3.4c-.088-.485-.485-.618-.926-.661" fill="#f9a51a"/>
    </g>
  </g>
</svg>
